<svg xmlns="http://www.w3.org/2000/svg" width="36" height="36" viewBox="0 0 36 36">
  <g id="conta_giros" data-name="conta giros" transform="translate(-6.333 -6)">
    <rect id="Ret창ngulo_3582" data-name="Ret창ngulo 3582" width="36" height="36" transform="translate(6.333 6)" fill="none"/>
    <g id="conta_giros-2" data-name="conta giros" transform="translate(9 9)">
      <rect id="Ret창ngulo_3582-2" data-name="Ret창ngulo 3582" width="31" height="30" transform="translate(0.333 0)" fill="none"/>
      <g id="_001-calendar" data-name="001-calendar" transform="translate(7 6)">
        <path id="Caminho_3886" data-name="Caminho 3886" d="M15.389,1.38H13.8V.552a.552.552,0,1,0-1.1,0V1.38H4.969V.552a.552.552,0,0,0-1.1,0V1.38H2.277A2.28,2.28,0,0,0,0,3.658V15.389a2.28,2.28,0,0,0,2.277,2.277H15.389a2.28,2.28,0,0,0,2.277-2.277V3.658A2.28,2.28,0,0,0,15.389,1.38ZM2.277,2.484H3.865v.552a.552.552,0,0,0,1.1,0V2.484H12.7v.552a.552.552,0,1,0,1.1,0V2.484h1.587a1.174,1.174,0,0,1,1.173,1.173V4.969H1.1V3.658A1.174,1.174,0,0,1,2.277,2.484ZM15.389,16.562H2.277A1.174,1.174,0,0,1,1.1,15.389V6.073H16.562v9.316A1.174,1.174,0,0,1,15.389,16.562Z" fill="#2f2f2f"/>
      </g>
    </g>
  </g>
</svg>
