<svg xmlns="http://www.w3.org/2000/svg" xmlns:xlink="http://www.w3.org/1999/xlink" width="36" height="36" viewBox="0 0 36 36">
  <defs>
    <clipPath id="clip-path">
      <rect id="Ret창ngulo_3369" data-name="Ret창ngulo 3369" width="23.345" height="19.101" fill="#2f2f2f"/>
    </clipPath>
  </defs>
  <g id="marcha" transform="translate(-1270 -693)">
    <rect id="Ret창ngulo_3595" data-name="Ret창ngulo 3595" width="36" height="36" transform="translate(1270 693)" fill="none"/>
    <g id="Grupo_10590" data-name="Grupo 10590" transform="translate(1276 701)">
      <g id="Grupo_6311" data-name="Grupo 6311" transform="translate(0 0)">
        <g id="Grupo_6310" data-name="Grupo 6310" clip-path="url(#clip-path)">
          <path id="Caminho_1268" data-name="Caminho 1268" d="M-1865.332-3787.16l-.194-1.94a.472.472,0,0,0-.17-.318.471.471,0,0,0-.346-.1l-3.263.327a6.456,6.456,0,0,0-3.914,1.855l-2.507,2.507-.042-.043a.472.472,0,0,0-.518-.1l-6.563,2.806a.472.472,0,0,0-.148.1l-2.7,2.705a.471.471,0,0,0-.092.536.472.472,0,0,0,.425.269l.049,0,.189-.02-3.4,3.4a.471.471,0,0,0,0,.666l3.456,3.457a.471.471,0,0,0,.333.137.471.471,0,0,0,.333-.137l3.191-3.191,1.739,1.739-1.269,1.269a.471.471,0,0,0,0,.666.469.469,0,0,0,.333.138.47.47,0,0,0,.333-.138l4.229-4.229a8.106,8.106,0,0,0,2.359-5.161c.006-.079.127-2.278.127-2.278a.469.469,0,0,0-.137-.359l-.179-.18,2.614-2.614a3.132,3.132,0,0,1,1.9-.9l3.414-.342a.471.471,0,0,0,.422-.516Zm-17.064,5.82,6.186-2.645,1.893,1.894-.08,1.431-9.7,1.021Zm-2.344,9.276-2.79-2.79,3.886-3.887,6.237-.657Zm8.222-3.413-2.293,2.294-1.739-1.738,4.633-4.633,1.454-.153a7.164,7.164,0,0,1-2.054,4.23Zm3.155-10.388.368,1.058-.5.5-.368-1.058Zm-1.238,1.238.368,1.058-.115.115-.713-.713Zm5.339-2.613a4.078,4.078,0,0,0-2.471,1.171l-.521.521-.368-1.058.07-.07a5.517,5.517,0,0,1,3.342-1.583l2.794-.279.1,1Zm0,0" transform="translate(1888.667 3789.524)" fill="#2f2f2f"/>
        </g>
      </g>
    </g>
  </g>
</svg>
