<svg xmlns="http://www.w3.org/2000/svg" width="36" height="36" viewBox="0 0 36 36">
  <g id="marcha" transform="translate(-1270 -693)">
    <rect id="Retângulo_3595" data-name="Retângulo 3595" width="36" height="36" transform="translate(1270 693)" fill="none"/>
    <path id="Caminho_1320" data-name="Caminho 1320" d="M-2644.128-2032.019a2.022,2.022,0,0,1-2.02-2.02v-4.7h-2.578v4.7a2.022,2.022,0,0,1-2.02,2.02,2.022,2.022,0,0,1-2.019-2.02v-4.7h-2.579v4.7a2.022,2.022,0,0,1-2.02,2.02,2.022,2.022,0,0,1-2.019-2.02v-4.7h-4.6a2.022,2.022,0,0,1-2.02-2.02v-6.722a2.022,2.022,0,0,1,2.02-2.02,2.022,2.022,0,0,1,2.019,2.02v4.7h2.579v-4.7a2.021,2.021,0,0,1,2.019-2.02,2.022,2.022,0,0,1,2.02,2.02v4.7h2.579v-4.7a2.022,2.022,0,0,1,2.02-2.02,2.021,2.021,0,0,1,2.019,2.02v4.7h2.578v-4.7a2.022,2.022,0,0,1,2.02-2.02,2.021,2.021,0,0,1,2.019,2.02v13.444a2.022,2.022,0,0,1-2.019,2.02Zm-5.113-7.752h3.608a.515.515,0,0,1,.515.515v5.218a.991.991,0,0,0,.99.99.991.991,0,0,0,.99-.99v-13.444a.991.991,0,0,0-.99-.99.991.991,0,0,0-.99.99v5.217a.515.515,0,0,1-.515.515h-3.608a.515.515,0,0,1-.515-.515v-5.217a.991.991,0,0,0-.99-.99.99.99,0,0,0-.989.99v5.217a.515.515,0,0,1-.515.515h-3.608a.515.515,0,0,1-.515-.515v-5.217a.991.991,0,0,0-.99-.99.991.991,0,0,0-.99.99v5.217a.515.515,0,0,1-.514.515h-3.609a.515.515,0,0,1-.515-.515v-5.217a.991.991,0,0,0-.99-.99.991.991,0,0,0-.99.99v6.722a.991.991,0,0,0,.99.99h5.113a.515.515,0,0,1,.514.515v5.218a.991.991,0,0,0,.99.99.991.991,0,0,0,.99-.99v-5.218a.515.515,0,0,1,.515-.515h3.608a.515.515,0,0,1,.515.515v5.218a.991.991,0,0,0,.989.99.991.991,0,0,0,.99-.99v-5.218a.515.515,0,0,1,.515-.515Zm0,0" transform="translate(3942 2751.502)" fill="#2f2f2f"/>
  </g>
</svg>
